  <svg width="38" height="60" viewBox="4 0 38 60" fill="none" xmlns="http://www.w3.org/2000/svg">
    <g filter="url(#filter0_d_10758_30016)">
      <path d="M23.4608 51.3162L39.2318 40.793C39.7369 40.458 40.1513 40.0032 40.438 39.4692C40.7247 38.9351 40.8748 38.3385 40.875 37.7323V3.6875C40.875 2.70951 40.4865 1.77158 39.795 1.08004C39.1034 0.388503 38.1655 -1.18437e-07 37.1875 -1.61186e-07L7.6875 -1.45067e-06C6.70951 -1.49342e-06 5.77158 0.388502 5.08004 1.08004C4.3885 1.77158 4 2.70951 4 3.6875V37.7323C4.00112 38.338 4.15142 38.9341 4.43762 39.4679C4.72382 40.0017 5.1371 40.4568 5.64094 40.793L21.4142 51.3093C21.7165 51.5124 22.0722 51.6215 22.4365 51.6227C22.8007 51.624 23.1571 51.5173 23.4608 51.3162Z" />
     </g>
  </svg>