<svg width="37" height="52" viewBox="0 0 37 57" fill="none" xmlns="http://www.w3.org/2000/svg">
<path d="M19.4603 51.3181L35.2313 40.7949C35.7364 40.4599 36.1508 40.0051 36.4375 39.4711C36.7242 38.9371 36.8744 38.3404 36.8745 37.7343V3.68941C36.8766 2.61549 36.8711 1 36.8706 3.41742e-05C35.9517 -0.000298829 34.165 0.00191085 33.187 0.00191081L3.68704 0.00190952C2.70906 0.00190948 1.49954 0.00223589 -0.000453949 0.00242825C-0.000453949 1.00289 -0.000453949 2.71142 -0.000453949 3.68941V37.7343C0.000667572 38.3399 0.150967 38.936 0.437164 39.4698C0.723358 40.0036 1.13664 40.4587 1.64048 40.7949L17.4137 51.3112C17.716 51.5143 18.0718 51.6234 18.436 51.6247C18.8002 51.6259 19.1566 51.5192 19.4603 51.3181Z"/>
</svg>
