<svg width="22" height="22" viewBox="0 0 22 22" fill="none" xmlns="http://www.w3.org/2000/svg">
<path d="M15.7576 11.6767L14.9126 8.37866C14.4726 6.65966 14.2526 5.80066 13.6766 5.36866C13.4846 5.22566 13.2686 5.11829 13.0386 5.05166C12.3546 4.85766 11.5786 5.22166 10.0236 5.94866C8.87363 6.48866 8.29763 6.75766 7.69763 6.94866C7.48895 7.01422 7.27817 7.07292 7.06563 7.12466C6.45463 7.27366 5.82763 7.34066 4.57263 7.47566C2.87863 7.65766 2.03263 7.74866 1.53263 8.27366C1.36483 8.4518 1.22946 8.6579 1.13263 8.88266C0.840631 9.55766 1.06063 10.4167 1.50163 12.1357L2.34663 15.4327C3.33963 19.3087 6.64263 20.5287 8.86263 20.9057C9.53963 21.0207 9.87863 21.0777 10.9066 20.7897C11.9346 20.5017 12.2006 20.2757 12.7316 19.8217C14.4736 18.3347 16.7516 15.5517 15.7576 11.6767Z" stroke="white" stroke-width="1.5"/>
<path d="M15.4997 16.2207C17.2397 15.4707 18.9787 14.0637 19.6527 11.4327L20.4977 8.13566C20.9377 6.41666 21.1587 5.55766 20.8677 4.88266C20.7706 4.65783 20.6349 4.45172 20.4667 4.27366C19.9667 3.74866 19.1197 3.65766 17.4267 3.47566C16.1717 3.34066 15.5447 3.27366 14.9337 3.12566C14.7212 3.07326 14.5104 3.0139 14.3017 2.94766C13.7017 2.75766 13.1257 2.48766 11.9757 1.94866C10.4217 1.22166 9.64472 0.85766 8.96072 1.05166C8.72939 1.11766 8.51672 1.22333 8.32272 1.36866C7.74772 1.80066 7.52672 2.65966 7.08672 4.37866L6.38672 7.10866" stroke="white" stroke-width="1.5"/>
<path d="M4.25781 12.2955C4.31781 11.6755 4.77881 11.1205 5.44781 10.9405C6.11681 10.7605 6.79381 11.0125 7.15581 11.5185M18.1788 7.93553C18.1188 7.31553 17.6578 6.76053 16.9888 6.58153C16.3188 6.40153 15.6428 6.65253 15.2808 7.15853M10.0538 10.7415C10.1138 10.1225 10.5738 9.56653 11.2438 9.38753C11.9138 9.20853 12.5898 9.45953 12.9518 9.96553" stroke="white" stroke-width="1.5" stroke-linecap="round"/>
<path d="M10.0947 6.04181C10.0385 6.12446 9.96636 6.19504 9.88247 6.2494C9.79858 6.30376 9.70468 6.3408 9.60627 6.35835C9.50786 6.3759 9.40694 6.3736 9.30944 6.35158C9.21193 6.32957 9.11981 6.28829 9.03849 6.23016C8.95717 6.17204 8.88829 6.09824 8.83589 6.01311C8.7835 5.92799 8.74865 5.83325 8.73339 5.73446C8.71814 5.63567 8.72279 5.53483 8.74706 5.43786C8.77134 5.3409 8.81475 5.24976 8.87475 5.16981L10.0947 6.04181ZM10.9977 5.75181C10.6197 5.65181 10.2677 5.79981 10.0947 6.04181L8.87475 5.16981C9.42475 4.39981 10.4277 4.04681 11.3867 4.30381L10.9977 5.75181ZM11.4767 6.06481C11.3552 5.91152 11.1871 5.80099 10.9977 5.75181L11.3867 4.30381C11.8923 4.43835 12.34 4.73337 12.6617 5.14581L11.4767 6.06481Z" fill="white"/>
<path d="M12.1997 15.2309C12.1997 15.2309 11.1757 14.4709 9.38775 14.9489C7.60075 15.4289 7.09375 16.5989 7.09375 16.5989" stroke="white" stroke-width="1.5" stroke-linecap="round"/>
</svg>
