<svg width="22" height="22" viewBox="0 0 22 22" fill="none" xmlns="http://www.w3.org/2000/svg">
<path d="M9.20963 7.32232L12.0166 4.27019C13.5139 2.64378 13.7005 1.22039 12.5766 0M5.83328 2.62511V2.04176M19.8333 1.75008V1.16672M19.8333 12.2505V11.6672M17.5 18.0841V17.5008M12.5778 10.9835L15.3848 7.93251C17.2569 5.89776 19.1287 5.89776 21 7.93251M0.787431 20.9671C0.683194 21.0034 0.5709 21.0098 0.463199 20.9857C0.355498 20.9616 0.256668 20.9079 0.177843 20.8306C0.0990175 20.7534 0.0433281 20.6556 0.0170476 20.5484C-0.00923291 20.4412 -0.00506013 20.3288 0.0290956 20.2239L3.05077 7.24532C3.19077 6.80896 3.75078 6.69113 4.05644 7.03181L13.1051 15.8335C13.17 15.9065 13.2159 15.9943 13.2389 16.0893C13.2618 16.1842 13.261 16.2833 13.2365 16.3778C13.2121 16.4724 13.1648 16.5594 13.0987 16.6314C13.0327 16.7033 12.9499 16.7578 12.8578 16.7902L0.787431 20.9671Z" stroke="white" stroke-width="1.5" stroke-linecap="round" stroke-linejoin="round"/>
</svg>
