<svg width="22" height="22" viewBox="0 0 22 22" fill="none" xmlns="http://www.w3.org/2000/svg">
<path d="M4.8 10.3L1 21L11.7 17.21M3 2H3.01M21 7H21.01M14 1H14.01M21 19H21.01M21 1L18.76 1.75C18.1224 1.96239 17.5783 2.38964 17.2208 2.95872C16.8633 3.52781 16.7146 4.20339 16.8 4.87C16.9 5.73 16.23 6.5 15.35 6.5H14.97C14.11 6.5 13.37 7.1 13.21 7.94L13 9M21 12L20.18 11.67C19.32 11.33 18.36 11.87 18.2 12.78C18.09 13.48 17.48 14 16.77 14H16M10 1L10.33 1.82C10.67 2.68 10.13 3.64 9.22 3.8C8.52 3.9 8 4.52 8 5.23V6" stroke="white" stroke-width="2" stroke-linecap="round" stroke-linejoin="round"/>
</svg>
