<svg width="20" height="24" viewBox="0 0 20 24" fill="none" xmlns="http://www.w3.org/2000/svg">
<path d="M4.22522 16.5294C3.37337 16.5294 2.55641 16.8703 1.95406 17.477C1.35171 18.0837 1.01331 18.9067 1.01331 19.7647C1.01331 20.6228 1.35171 21.4457 1.95406 22.0524C2.55641 22.6591 3.37337 23 4.22522 23C5.07707 23 5.89403 22.6591 6.49638 22.0524C7.09873 21.4457 7.43713 20.6228 7.43713 19.7647C7.43713 18.9067 7.09873 18.0837 6.49638 17.477C5.89403 16.8703 5.07707 16.5294 4.22522 16.5294ZM4.22522 16.5294L6.37977 11.1329M14.9851 6.18035C16.4459 6.18035 17.7152 5.01824 17.7152 3.58824C17.7152 2.15824 16.5307 1 15.0699 1C13.9188 1 12.9051 1.96153 12.5415 2.96706M5.03077 6.17C3.58541 6.17 2.29808 5.01824 2.29808 3.58824C2.29808 2.15824 3.46978 1 4.91642 1C6.11639 1 7.10823 1.87741 7.41786 2.96706M12.5762 20.4118H7.43713M15.1457 16.5294L13.2725 11.494M4.74812 15.2198L4.17126 15.4695C3.86758 15.5733 3.54632 15.6148 3.22647 15.5915C2.90661 15.5681 2.59465 15.4804 2.309 15.3336C2.02335 15.1867 1.76982 14.9837 1.56338 14.7365C1.35694 14.4893 1.20178 14.203 1.10706 13.8943C1.01234 13.5857 0.979996 13.2611 1.01192 12.9397C1.04385 12.6183 1.13941 12.3065 1.29296 12.0229C1.4465 11.7394 1.65492 11.4896 1.90589 11.2885C2.15686 11.0874 2.4453 10.939 2.75417 10.8521L5.50999 10.0588M14.6395 15.2198L15.1701 15.4061C15.4709 15.5144 15.7901 15.561 16.109 15.5432C16.428 15.5254 16.7401 15.4436 17.0272 15.3025C17.3143 15.1615 17.5704 14.964 17.7806 14.7218C17.9908 14.4795 18.1508 14.1974 18.2512 13.892C18.3516 13.5865 18.3904 13.264 18.3652 12.9432C18.34 12.6225 18.2515 12.3101 18.1047 12.0243C17.9579 11.7386 17.7559 11.4853 17.5105 11.2793C17.2651 11.0733 16.9814 10.9188 16.6759 10.8249L14.4327 10.1028M10.0067 8.84494V8.832M8.23625 6.82094V6.808M12.1342 6.82094V6.808M15.1457 7.47059C15.1457 8.84347 14.6043 10.1601 13.6405 11.1309C12.6768 12.1017 11.3696 12.6471 10.0067 12.6471C8.6437 12.6471 7.33656 12.1017 6.3728 11.1309C5.40904 10.1601 4.8676 8.84347 4.8676 7.47059C4.8676 6.0977 5.40904 4.78105 6.3728 3.81027C7.33656 2.83949 8.6437 2.29412 10.0067 2.29412C11.3696 2.29412 12.6768 2.83949 13.6405 3.81027C14.6043 4.78105 15.1457 6.0977 15.1457 7.47059ZM19 19.7647C19 20.6228 18.6616 21.4457 18.0593 22.0524C17.4569 22.6591 16.6399 23 15.7881 23C14.9362 23 14.1193 22.6591 13.5169 22.0524C12.9146 21.4457 12.5762 20.6228 12.5762 19.7647C12.5762 18.9067 12.9146 18.0837 13.5169 17.477C14.1193 16.8703 14.9362 16.5294 15.7881 16.5294C16.6399 16.5294 17.4569 16.8703 18.0593 17.477C18.6616 18.0837 19 18.9067 19 19.7647Z" stroke="white" stroke-width="1.5" stroke-linecap="round" stroke-linejoin="round"/>
</svg>
