<svg width="22" height="22" viewBox="0 0 22 22" fill="none" xmlns="http://www.w3.org/2000/svg">
<path d="M16.998 6C17.6611 6 18.297 5.73661 18.7658 5.26777C19.2347 4.79893 19.498 4.16304 19.498 3.5C19.498 2.83696 19.2347 2.20107 18.7658 1.73223C18.297 1.26339 17.6611 1 16.998 1C16.335 1 15.6991 1.26339 15.2303 1.73223C14.7614 2.20107 14.498 2.83696 14.498 3.5C14.498 4.16304 14.7614 4.79893 15.2303 5.26777C15.6991 5.73661 16.335 6 16.998 6Z" stroke="white" stroke-width="2"/>
<path d="M4.998 6.88502L8.9995 5.49902L14.498 8.12352L8.9995 12.222L14.498 15.842L11.002 20.499M16.658 9.32152L17.999 10.051L20.998 7.23302M7.4225 14.2725L5.9375 16.2285L1 18.9985" stroke="white" stroke-width="2" stroke-linecap="round" stroke-linejoin="round"/>
</svg>
